<svg width="47" height="56" viewBox="0 0 47 56" xmlns="http://www.w3.org/2000/svg"><title>A3253929-DACA-49A7-962D-BAC281BC6922</title><path d="M3.181 55.667A3.181 3.181 0 0 1 0 52.485V3.2C0 1.002 2.188-.573 4.246.2c.414.155.846.372 1.3.647 12.266 7.414 24.618 14.683 36.91 22.051 1.122.671 2.136 1.521 3.163 2.349a3.182 3.182 0 0 1-.008 4.963c-1.023.819-2.034 1.656-3.144 2.33-6.52 3.95-13.102 7.8-19.635 11.73-6.015 3.618-12 7.285-17.997 10.933a3.178 3.178 0 0 1-1.654.464" fill="#FFF" fill-rule="evenodd"/></svg>