<?xml version="1.0" standalone="no"?>
<!DOCTYPE svg PUBLIC "-//W3C//DTD SVG 20010904//EN"
 "http://www.w3.org/TR/2001/REC-SVG-20010904/DTD/svg10.dtd">
<svg version="1.0" xmlns="http://www.w3.org/2000/svg"
 width="16.000000pt" height="16.000000pt" viewBox="0 0 16.000000 16.000000"
 preserveAspectRatio="xMidYMid meet">
<metadata>
Created by potrace 1.11, written by Peter Selinger 2001-2013
</metadata>
<g transform="translate(0.000000,16.000000) scale(0.002589,-0.002589)"
fill="#000000" stroke="none">
<path d="M2988 5235 c-2 -1 -43 -5 -91 -9 -49 -4 -112 -11 -140 -16 -29 -5
-68 -12 -87 -15 -19 -3 -55 -11 -80 -16 -25 -6 -52 -12 -60 -14 -168 -39 -443
-149 -595 -238 -27 -17 -66 -39 -85 -49 -67 -38 -236 -163 -320 -237 -481
-424 -763 -977 -825 -1622 -12 -123 -7 -381 9 -499 2 -14 7 -50 10 -80 38
-293 191 -689 374 -965 138 -207 334 -421 517 -563 44 -34 86 -67 93 -73 48
-40 239 -152 357 -209 311 -153 688 -242 1025 -243 89 -1 297 10 340 18 14 2
41 6 60 9 19 3 60 10 90 16 30 6 66 14 80 16 51 10 147 37 220 61 773 258
1359 872 1579 1656 16 58 32 118 35 134 2 15 9 53 15 83 44 238 49 591 11 803
-5 29 -11 63 -14 77 -2 14 -16 75 -31 135 -83 339 -227 634 -452 923 -65 84
-238 264 -327 341 -67 57 -251 191 -264 191 -6 0 -12 4 -14 9 -5 15 -212 126
-317 171 -53 23 -105 45 -116 50 -101 45 -377 114 -535 135 -25 3 -63 8 -85
11 -43 6 -371 14 -377 9z"/>
</g>
</svg>
