<?xml version="1.0" standalone="no"?>
<!DOCTYPE svg PUBLIC "-//W3C//DTD SVG 20010904//EN"
 "http://www.w3.org/TR/2001/REC-SVG-20010904/DTD/svg10.dtd">
<svg version="1.0" xmlns="http://www.w3.org/2000/svg"
 width="16.000000pt" height="16.000000pt" viewBox="0 0 16.000000 16.000000"
 preserveAspectRatio="xMidYMid meet">
<metadata>
Created by potrace 1.11, written by Peter Selinger 2001-2013
</metadata>
<g transform="translate(0.000000,16.000000) scale(0.000931,-0.000931)"
fill="#000000" stroke="none">
<path d="M8249 16926 c-2 -2 -69 -7 -149 -11 -80 -4 -161 -9 -180 -10 -126
-10 -188 -16 -210 -20 -14 -2 -54 -7 -90 -11 -36 -3 -73 -8 -82 -9 -9 -2 -48
-7 -85 -10 -37 -4 -70 -9 -73 -10 -3 -2 -30 -6 -60 -10 -30 -4 -102 -16 -160
-26 -58 -11 -130 -24 -161 -29 -30 -6 -107 -21 -170 -36 -63 -14 -123 -27
-134 -29 -19 -5 -75 -17 -85 -20 -3 -1 -18 -5 -35 -9 -475 -122 -961 -288
-1329 -453 -56 -25 -121 -54 -146 -65 -67 -30 -406 -199 -475 -238 -398 -220
-703 -416 -1040 -668 -127 -95 -248 -190 -315 -248 -14 -12 -61 -52 -105 -89
-139 -117 -264 -234 -465 -435 -229 -228 -312 -318 -470 -505 -143 -170 -162
-194 -257 -319 -51 -67 -96 -126 -101 -131 -15 -18 -196 -278 -233 -335 -102
-156 -153 -236 -222 -353 -43 -70 -77 -129 -77 -131 0 -2 -22 -41 -48 -87
-172 -299 -406 -813 -544 -1193 -106 -293 -256 -802 -284 -965 -3 -14 -9 -42
-14 -61 -11 -40 -57 -267 -65 -320 -3 -19 -8 -46 -10 -60 -12 -58 -15 -77 -21
-120 -3 -25 -8 -54 -10 -65 -3 -11 -7 -40 -10 -65 -3 -25 -7 -56 -9 -70 -2
-14 -6 -45 -10 -70 -3 -25 -8 -61 -10 -80 -6 -36 -10 -80 -20 -215 -4 -44 -8
-91 -10 -105 -12 -86 -19 -324 -20 -650 0 -329 5 -476 20 -650 2 -25 7 -78 10
-118 4 -41 8 -86 10 -100 2 -15 7 -58 10 -97 4 -38 9 -77 10 -85 2 -8 6 -40
10 -70 4 -30 9 -66 11 -80 2 -14 6 -45 9 -70 3 -25 8 -56 11 -70 7 -28 11 -50
18 -100 3 -19 21 -116 41 -215 20 -99 39 -191 41 -204 3 -14 7 -28 9 -31 2 -4
7 -22 10 -41 30 -180 250 -883 345 -1104 5 -11 21 -51 35 -90 15 -38 35 -88
45 -110 10 -22 32 -73 50 -114 110 -254 318 -661 428 -841 12 -19 25 -42 29
-50 16 -33 162 -264 261 -412 94 -141 325 -457 400 -548 151 -182 249 -299
266 -316 12 -12 62 -67 111 -123 213 -238 624 -625 894 -841 24 -19 58 -47 75
-61 138 -115 459 -343 721 -511 130 -83 409 -248 420 -248 3 0 23 -11 44 -25
45 -28 403 -209 502 -254 405 -182 724 -301 1184 -440 65 -19 393 -104 447
-115 13 -3 55 -11 93 -19 157 -33 222 -46 255 -51 19 -3 46 -8 60 -11 56 -11
269 -44 320 -50 30 -3 66 -8 80 -10 40 -7 120 -15 275 -30 39 -3 84 -8 101
-10 145 -20 966 -28 1179 -12 188 14 210 16 283 22 40 4 81 8 90 10 9 1 49 6
87 9 39 4 81 9 95 11 14 2 50 7 80 10 30 4 64 9 75 11 11 3 39 7 61 10 41 5
62 8 114 19 14 3 41 7 60 9 39 6 38 6 243 47 554 111 1204 320 1690 543 32 14
60 26 63 26 9 0 423 205 509 253 137 74 183 101 353 202 106 63 297 184 327
207 6 5 66 47 135 94 102 71 347 252 419 310 423 340 819 722 1145 1104 124
146 115 134 221 270 50 63 95 122 102 130 112 143 289 401 422 615 51 83 104
167 117 187 13 21 24 40 24 43 0 2 13 26 29 52 70 116 285 535 355 693 161
365 288 702 381 1015 14 50 30 101 35 115 9 24 94 352 104 401 8 41 13 63 24
104 6 22 13 54 16 70 3 17 16 89 30 160 14 72 27 144 30 160 13 77 16 93 21
135 3 25 7 52 10 60 2 8 7 40 10 70 3 30 8 66 10 80 6 41 21 171 31 265 10
105 21 266 30 435 5 106 5 647 0 755 -6 117 -19 289 -32 427 -3 35 -7 79 -9
98 -2 19 -5 53 -8 75 -3 22 -9 65 -13 95 -3 30 -8 62 -9 70 -1 8 -5 33 -9 55
-10 69 -46 289 -52 320 -3 17 -12 64 -20 105 -9 41 -18 89 -21 105 -2 17 -18
86 -35 155 -16 69 -31 132 -33 140 -60 255 -256 869 -325 1015 -5 11 -23 54
-39 95 -16 41 -37 92 -45 112 -9 21 -17 41 -18 45 -2 10 -67 152 -116 253 -20
41 -36 77 -37 80 -2 7 -109 219 -143 282 -16 29 -43 78 -59 108 -17 30 -51 90
-77 133 -25 43 -46 80 -46 83 0 7 -218 351 -285 449 -115 168 -311 434 -370
502 -5 7 -14 18 -20 25 -238 306 -683 774 -984 1035 -25 21 -58 51 -75 66 -64
59 -417 338 -543 430 -585 425 -1162 742 -1853 1019 -189 76 -613 220 -775
264 -144 38 -436 112 -465 118 -14 2 -83 16 -155 30 -71 15 -143 29 -160 32
-16 2 -37 7 -45 9 -8 2 -33 6 -55 9 -22 4 -51 8 -65 11 -14 2 -43 7 -65 10
-22 3 -51 8 -65 10 -14 2 -45 6 -70 9 -25 3 -77 10 -117 15 -39 6 -102 13
-140 16 -37 3 -84 7 -103 10 -37 5 -120 12 -255 21 -94 7 -860 16 -866 10z"/>
</g>
</svg>
