<?xml version="1.0" encoding="UTF-8"?>
<svg width="56px" height="41px" viewBox="0 0 56 41" version="1.1" xmlns="http://www.w3.org/2000/svg" xmlns:xlink="http://www.w3.org/1999/xlink">
    <!-- Generator: sketchtool 42 (36781) - http://www.bohemiancoding.com/sketch -->
    <title>3C1063B4-6ADA-468B-927D-D59A8750EC1F</title>
    <desc>Created with sketchtool.</desc>
    <defs></defs>
    <g id="Page-1" stroke="none" stroke-width="1" fill="none" fill-rule="evenodd">
        <g id="Acerca-de-mi" transform="translate(-248.000000, -782.000000)" fill="#E77D16">
            <g id="Page-1" transform="translate(248.000000, 782.000000)">
                <path d="M12.4534795,16.2878302 C16.0497534,15.5622075 19.4895342,16.4146981 22.3662466,18.5900189 C25.2429589,20.7661132 27.0410959,24.1505472 27.0410959,27.8970189 C27.1607671,31.6442642 25.6027397,35.1501509 22.7260274,37.4461509 C20.4484384,39.3801132 17.6913973,40.344 14.6950137,40.344 C10.0201644,40.344 5.58542466,37.8027736 3.06849315,33.6965849 C1.3900274,30.9163208 0.431123288,27.2897547 0.191780822,22.8176604 C0.671232877,12.4253208 5.1059726,5.17373585 13.6164384,1.30581132 C14.8990685,0.803754717 15.3217534,0.743415094 16.6726575,0.429339623 L18.1716164,0.217377358 C19.9689863,-0.145433962 21.168,1.06367925 21.168,2.75550943 L21.168,5.29441509 C21.168,5.89858491 20.9278904,7.46973585 18.890411,7.83254717 C14.336,8.67884906 12.4358356,10.9423585 11.9326027,16.3419811 M18.5966027,2.34783019 C8.5219726,3.85864151 3.18816438,13.634434 2.82915068,22.941434 C2.82915068,26.6886792 3.66761644,29.952434 5.22564384,32.3698868 C7.38356164,35.7543208 10.9790685,37.8089623 14.8146849,37.8089623 C17.2127123,37.8089623 19.369863,36.9626604 21.168,35.5121887 C23.3251507,33.6989057 24.6438356,30.9194151 24.5241644,28.0184717 C24.403726,24.9960755 23.0858082,22.3372642 20.8082192,20.645434 C18.4109589,18.8321509 15.773589,18.2272075 12.7772055,18.8321509 C12.4181918,18.9528302 12.1780822,18.9528302 11.9379726,18.9528302 C11.0995068,18.9528302 9.78082192,18.5900189 9.4210411,16.5353774 C9.4210411,16.172566 9.30136986,15.8105283 9.4210411,15.3262642 C10.0201644,10.1293208 11.8183014,6.50275472 18.2912877,5.29441509 C18.5306301,5.29441509 18.5306301,5.17373585 18.5306301,5.17373585" id="Fill-1"></path>
                <path d="M40.699726,16.2878302 C44.2952329,15.5622075 47.7357808,16.4146981 50.6124932,18.5900189 C53.4915068,20.7661132 55.2865753,24.1505472 55.2865753,27.8970189 C55.4070137,31.6442642 53.8482192,35.1501509 50.9684384,37.4461509 C48.6946849,39.3801132 45.9345753,40.344 42.9381918,40.344 C38.2633425,40.344 33.8255342,37.8027736 31.3109041,33.6965849 C29.6332055,30.9163208 28.6743014,27.2897547 28.4341918,22.8176604 C28.9136438,12.423 33.3491507,5.17064151 41.8588493,1.30271698 C43.1414795,0.800660377 43.5641644,0.740320755 44.9158356,0.426245283 L46.4109589,0.217377358 C48.2090959,-0.145433962 49.4073425,1.06367925 49.4073425,2.75550943 L49.4073425,5.29441509 C49.4073425,5.89858491 49.168,7.46973585 47.1328219,7.83254717 C42.578411,8.67884906 40.6782466,10.9423585 40.1719452,16.3419811 M46.8420822,2.34783019 C36.7651507,3.85864151 31.428274,13.634434 31.0715616,22.941434 C31.0715616,26.6886792 31.9107945,29.952434 33.4688219,32.3698868 C35.6259726,35.7543208 39.2222466,37.8089623 43.057863,37.8089623 C45.4551233,37.8089623 47.612274,36.9626604 49.410411,35.5121887 C51.5683288,33.6989057 52.8862466,30.9194151 52.7665753,28.0184717 C52.6469041,24.9960755 51.3282192,22.3372642 49.0506301,20.645434 C46.6533699,18.8321509 44.0167671,18.2272075 41.0203836,18.8321509 C40.6606027,18.9528302 40.4204932,18.9528302 40.1811507,18.9528302 C39.3419178,18.9528302 38.0232329,18.5900189 37.6642192,16.5353774 C37.6642192,16.172566 37.5414795,15.8105283 37.6642192,15.3262642 C38.2633425,10.1293208 40.0614795,6.50275472 46.5306301,5.29441509 C46.7707397,5.29441509 46.7707397,5.17373585 46.7707397,5.17373585" id="Fill-2"></path>
            </g>
        </g>
    </g>
</svg>