<?xml version="1.0" encoding="UTF-8"?>
<svg width="47px" height="56px" viewBox="0 0 47 56" version="1.1" xmlns="http://www.w3.org/2000/svg" xmlns:xlink="http://www.w3.org/1999/xlink">
    <!-- Generator: Sketch 42 (36781) - http://www.bohemiancoding.com/sketch -->
    <title>Page 1 Copy 2</title>
    <desc>Created with Sketch.</desc>
    <defs></defs>
    <g id="Page-1" stroke="none" stroke-width="1" fill="none" fill-rule="evenodd">
        <g id="Videos" transform="translate(-273.000000, -632.000000)" fill="#FFFFFF">
            <g id="Page-1-Copy-2" transform="translate(273.000000, 632.000000)">
                <path d="M3.18111165,55.6670291 L3.18111165,55.6670291 C1.4237843,55.6670291 -0.000116379295,54.2426709 -0.000116379295,52.4847788 L-0.000116379295,3.20035315 C-0.000116379295,1.00182387 2.18781437,-0.573294013 4.2459822,0.199130756 C4.6597106,0.354547044 5.09205968,0.572246263 5.54652082,0.846989663 C17.8117347,8.26098687 30.1636512,15.5300453 42.4567962,22.8980579 C43.5775288,23.5692001 44.5917743,24.419042 45.6188216,25.2467647 C47.2044895,26.5232738 47.1998343,28.9389202 45.6106751,30.2101905 C44.587701,31.0285999 43.5769469,31.8656359 42.4666884,32.5391065 C35.9465384,36.4908712 29.3647074,40.3401892 22.8317556,44.2704168 C16.8172737,47.8880656 10.8318865,51.5551915 4.83544333,55.2031086 C4.33675805,55.5069562 3.76475382,55.6670291 3.18111165,55.6670291" id="Fill-1"></path>
            </g>
        </g>
    </g>
</svg>